<svg width="355" height="175" viewBox="0 0 355 175" fill="none" xmlns="http://www.w3.org/2000/svg">
<g clip-path="url(#clip0_1_1432)">
<path d="M80.9759 130.39C74.6856 130.39 69.5391 125.229 69.5391 118.922C69.5391 112.615 74.6856 107.454 80.9759 107.454C87.2662 107.454 92.4128 112.615 92.4128 118.922C92.4128 125.229 87.2662 130.39 80.9759 130.39ZM80.9759 110.894C76.5155 110.894 72.9701 114.45 72.9701 118.922C72.9701 123.394 76.5155 126.95 80.9759 126.95C85.4363 126.95 88.9817 123.394 88.9817 118.922C88.9817 114.45 85.3219 110.894 80.9759 110.894Z" fill="#EF9926"/>
<path d="M328.927 67.2018C326.754 67.2018 324.924 65.367 324.924 63.1881C324.924 61.0092 326.754 59.1743 328.927 59.1743C331.1 59.1743 332.93 61.0092 332.93 63.1881C332.93 65.367 331.1 67.2018 328.927 67.2018ZM328.927 60.3211C327.326 60.3211 326.068 61.5826 326.068 63.1881C326.068 64.7936 327.326 66.055 328.927 66.055C330.528 66.055 331.786 64.7936 331.786 63.1881C331.786 61.5826 330.528 60.3211 328.927 60.3211Z" fill="#FFEB97"/>
<path d="M119.861 172.706C117.231 172.706 115.172 170.642 115.172 168.005C115.172 165.367 117.231 163.303 119.861 163.303C122.491 163.303 124.55 165.367 124.55 168.005C124.55 170.642 122.491 172.706 119.861 172.706ZM119.861 164.679C118.031 164.679 116.544 166.17 116.544 168.005C116.544 169.839 118.031 171.33 119.861 171.33C121.691 171.33 123.178 169.839 123.178 168.005C123.178 166.17 121.691 164.679 119.861 164.679Z" fill="#044236"/>
<path d="M285.009 115.138C287.852 115.138 290.156 112.827 290.156 109.977C290.156 107.127 287.852 104.816 285.009 104.816C282.167 104.816 279.863 107.127 279.863 109.977C279.863 112.827 282.167 115.138 285.009 115.138Z" fill="#FFAE1F"/>
<path d="M71.9409 56.3073C74.1516 56.3073 75.9438 54.5103 75.9438 52.2935C75.9438 50.0768 74.1516 48.2798 71.9409 48.2798C69.7301 48.2798 67.938 50.0768 67.938 52.2935C67.938 54.5103 69.7301 56.3073 71.9409 56.3073Z" fill="#FFAE1F"/>
<path d="M245.667 31.9954C248.193 31.9954 250.241 29.9416 250.241 27.4082C250.241 24.8748 248.193 22.821 245.667 22.821C243.14 22.821 241.092 24.8748 241.092 27.4082C241.092 29.9416 243.14 31.9954 245.667 31.9954Z" fill="#FFD522"/>
<path d="M9.95316 147.477C12.4797 147.477 14.5279 145.423 14.5279 142.89C14.5279 140.356 12.4797 138.303 9.95316 138.303C7.4266 138.303 5.37842 140.356 5.37842 142.89C5.37842 145.423 7.4266 147.477 9.95316 147.477Z" fill="#FFD522"/>
<path d="M331.9 155.161C333.795 155.161 335.331 153.62 335.331 151.72C335.331 149.82 333.795 148.28 331.9 148.28C330.005 148.28 328.469 149.82 328.469 151.72C328.469 153.62 330.005 155.161 331.9 155.161Z" fill="#FFD522"/>
<path d="M100.876 99.5413C103.718 99.5413 106.023 97.2309 106.023 94.3808C106.023 91.5307 103.718 89.2202 100.876 89.2202C98.0337 89.2202 95.7295 91.5307 95.7295 94.3808C95.7295 97.2309 98.0337 99.5413 100.876 99.5413Z" fill="#044236"/>
<path d="M215.13 3.44037C216.078 3.44037 216.846 2.67021 216.846 1.72018C216.846 0.770152 216.078 0 215.13 0C214.183 0 213.415 0.770152 213.415 1.72018C213.415 2.67021 214.183 3.44037 215.13 3.44037Z" fill="#D6CD56"/>
<path d="M33.7414 133.601C34.6889 133.601 35.4569 132.831 35.4569 131.881C35.4569 130.931 34.6889 130.161 33.7414 130.161C32.7939 130.161 32.0259 130.931 32.0259 131.881C32.0259 132.831 32.7939 133.601 33.7414 133.601Z" fill="#E54242"/>
<path d="M115.858 122.936C116.806 122.936 117.574 122.166 117.574 121.216C117.574 120.266 116.806 119.495 115.858 119.495C114.911 119.495 114.143 120.266 114.143 121.216C114.143 122.166 114.911 122.936 115.858 122.936Z" fill="#E54242"/>
<path d="M250.813 104.014C251.761 104.014 252.529 103.244 252.529 102.294C252.529 101.344 251.761 100.573 250.813 100.573C249.866 100.573 249.098 101.344 249.098 102.294C249.098 103.244 249.866 104.014 250.813 104.014Z" fill="#FFAE1F"/>
<path d="M119.175 13.6469C120.122 13.6469 120.891 12.8768 120.891 11.9267C120.891 10.9767 120.122 10.2065 119.175 10.2065C118.228 10.2065 117.459 10.9767 117.459 11.9267C117.459 12.8768 118.228 13.6469 119.175 13.6469Z" fill="#FFC91F"/>
<path d="M182.535 26.7203C184.114 26.7203 185.394 25.4367 185.394 23.8533C185.394 22.2699 184.114 20.9863 182.535 20.9863C180.956 20.9863 179.676 22.2699 179.676 23.8533C179.676 25.4367 180.956 26.7203 182.535 26.7203Z" fill="#D6CD56"/>
<path d="M344.138 126.95C345.717 126.95 346.997 125.666 346.997 124.083C346.997 122.499 345.717 121.216 344.138 121.216C342.559 121.216 341.279 122.499 341.279 124.083C341.279 125.666 342.559 126.95 344.138 126.95Z" fill="#EF4B4B"/>
<path d="M270.942 91.1697C272.521 91.1697 273.801 89.8862 273.801 88.3028C273.801 86.7194 272.521 85.4358 270.942 85.4358C269.363 85.4358 268.083 86.7194 268.083 88.3028C268.083 89.8862 269.363 91.1697 270.942 91.1697Z" fill="#E54242"/>
<path d="M303.309 154.128L291.643 141.858L279.749 148.394L278.147 145.298L292.329 137.615L303.423 149.312L322.065 131.995L324.352 134.518L303.309 154.128Z" fill="#D6CD56"/>
<path d="M287.182 65.023L285.695 48.0505H302.507L297.361 29.7019L316.689 28.5551L311.428 15.1377L315.774 13.4175L323.323 32.7982L303.308 33.945L308.569 52.6377H290.728L291.757 64.6789L287.182 65.023Z" fill="#044236"/>
<path d="M101.219 59.6331L98.017 58.601L103.735 40.8258L88.0669 33.945L94.7003 17.3166L75.9438 12.6148L76.7444 9.28906L99.275 14.9083L92.4129 32.1102L107.967 38.9909L101.219 59.6331Z" fill="#D6CD56"/>
<path d="M21.0467 108.945L11.5541 88.9907L-0.225838 106.193L-4 103.555L12.2403 79.8164L22.3048 100.803L32.7123 89.3348L42.3193 105.275L38.4307 107.683L32.0261 97.0182L21.0467 108.945Z" fill="#D6CD56"/>
<path d="M46.894 61.3532C36.8295 54.7018 40.1462 40.9403 40.2606 40.3669L43.5773 41.1697C43.5773 41.2844 40.8324 53.0963 48.8382 58.4862L46.894 61.3532Z" fill="#FFAE1F"/>
<path d="M333.387 100L330.414 98.2798C336.475 87.844 350.314 90.367 350.886 90.4816L350.314 93.8073C350.199 93.6926 338.191 91.6284 333.387 100Z" fill="#FFAE1F"/>
<path d="M91.3835 152.179L88.1812 151.032C88.1812 150.918 92.7559 139.106 106.709 140.596L106.366 144.037C95.0433 142.775 91.3835 152.064 91.3835 152.179Z" fill="#D6CD56"/>
<path d="M249.555 175L246.353 173.739C247.839 170.184 247.954 167.087 246.696 164.45C244.866 160.665 240.749 159.174 240.749 159.174L241.778 155.849C242.007 155.963 247.382 157.684 249.784 162.959C251.499 166.399 251.385 170.413 249.555 175Z" fill="#044236"/>
<path d="M130.612 26.6055L129.011 23.6238C132.327 21.7889 134.386 19.4954 135.187 16.7431C136.216 12.7293 133.929 8.9449 133.814 8.83022L136.673 6.99536C136.788 7.22472 139.876 12.0412 138.389 17.5458C137.474 21.2155 134.844 24.1972 130.612 26.6055Z" fill="#044236"/>
<path d="M274.144 134.977C259.505 132.225 255.96 118.807 255.845 118.234L259.162 117.431L257.446 117.89L259.162 117.431C259.276 117.89 262.364 129.358 274.716 131.651L274.144 134.977Z" fill="#EF4B4B"/>
<path d="M251.271 46.6743C249.326 47.9358 271.171 44.9541 280.778 18.922C281.578 16.7431 271.628 9.74768 269.227 12.6147C266.825 15.4816 273.801 31.422 251.271 46.6743Z" fill="#FFAE1F"/>
<g filter="url(#filter0_d_1_1432)">
<circle cx="177.5" cy="87.5" r="54.5" fill="#4CB162"/>
</g>
<path d="M173.496 33C176.433 33 179.367 33 182.304 33C182.408 33.2718 182.65 33.1984 182.848 33.2147C185.163 33.4267 187.462 33.7583 189.733 34.2692C212.353 39.3596 228.984 57.2452 232.438 80.1696C232.625 81.4198 232.587 82.7053 233 83.9228C233 84.6403 233 85.3551 233 86.0726C232.476 85.9911 232.098 85.6459 231.731 85.3116C229.832 83.5777 227.943 81.8356 226.061 80.0853C222.789 77.0469 219.545 73.9812 216.244 70.9754C215.597 70.3856 215.021 69.6627 214.154 69.3366C213.755 68.3228 213.149 67.4504 212.377 66.6813C210.905 65.2164 209.454 63.7325 207.965 62.284C207.481 61.8138 206.951 61.3626 206.37 61.0283C203.65 59.4738 200.634 60.001 198.175 62.447C188.989 71.5869 179.799 80.7267 170.645 89.8992C169.955 90.5922 169.632 90.5216 168.996 89.8693C165.323 86.1025 161.6 82.3791 157.891 78.6476C154.745 75.4814 150.971 75.4896 147.792 78.6558C146.499 79.944 145.208 81.2377 143.92 82.5286C140.657 85.8008 140.66 89.4807 143.936 92.7855C150.667 99.5717 157.402 106.355 164.124 113.15C165.081 114.117 166.051 115.055 167.26 115.71C167.32 116.267 167.768 116.552 168.113 116.9C175.759 124.556 183.41 132.207 191.056 139.863C191.428 140.235 191.904 140.542 191.985 141.132C188.173 142.322 184.236 142.801 180.272 142.953C170.382 143.336 160.943 141.404 152.286 136.574C134.207 126.489 124.384 111.005 123.102 90.3259C122.488 80.4088 124.659 70.9428 129.462 62.2296C138.317 46.1676 151.857 36.6119 169.974 33.5925C171.148 33.3968 172.371 33.481 173.496 33Z" fill="#32B97C"/>
<path d="M214.154 69.3367C215.021 69.6655 215.597 70.3884 216.244 70.9755C219.545 73.9786 222.789 77.047 226.06 80.0854C227.943 81.8357 229.832 83.5805 231.731 85.3117C232.095 85.646 232.475 85.9884 233 86.0727C233 88.2224 233 90.3695 233 92.5192C232.785 92.5953 232.799 92.7801 232.785 92.9568C232.541 95.8403 232.092 98.6913 231.34 101.485C226.873 118.066 216.893 130.13 201.52 137.724C198.482 139.224 195.319 140.431 191.985 141.137C191.904 140.548 191.428 140.241 191.056 139.868C183.41 132.212 175.759 124.562 168.113 116.906C167.768 116.561 167.32 116.273 167.26 115.715C170.333 116.748 172.9 116.017 175.118 113.65C177.487 111.12 179.943 108.668 182.397 106.22C192.317 96.3214 202.242 86.426 212.192 76.5523C214.263 74.4977 215.013 72.155 214.154 69.3367Z" fill="#0AA06E"/>
<path d="M214.154 69.3364C215.013 72.1547 214.263 74.4974 212.19 76.552C202.243 86.4257 192.317 96.3184 182.394 106.219C179.941 108.668 177.487 111.119 175.115 113.65C172.895 116.017 170.328 116.748 167.257 115.715C166.048 115.063 165.078 114.122 164.122 113.155C157.4 106.361 150.661 99.5797 143.934 92.7907C140.657 89.4859 140.654 85.8088 143.918 82.5338C145.208 81.2402 146.496 79.9493 147.789 78.661C150.968 75.4948 154.742 75.4867 157.889 78.6529C161.6 82.3844 165.32 86.1077 168.994 89.8745C169.629 90.5268 169.953 90.5948 170.643 89.9044C179.797 80.732 188.986 71.5948 198.172 62.4523C200.631 60.0063 203.647 59.4763 206.367 61.0336C206.949 61.3652 207.478 61.819 207.962 62.2892C209.451 63.735 210.902 65.2217 212.375 66.6865C213.152 67.4502 213.758 68.3226 214.154 69.3364Z" fill="#FDFEFE"/>
</g>
<defs>
<filter id="filter0_d_1_1432" x="93" y="3" width="169" height="169" filterUnits="userSpaceOnUse" color-interpolation-filters="sRGB">
<feFlood flood-opacity="0" result="BackgroundImageFix"/>
<feColorMatrix in="SourceAlpha" type="matrix" values="0 0 0 0 0 0 0 0 0 0 0 0 0 0 0 0 0 0 127 0" result="hardAlpha"/>
<feOffset/>
<feGaussianBlur stdDeviation="15"/>
<feColorMatrix type="matrix" values="0 0 0 0 0.298039 0 0 0 0 0.694118 0 0 0 0 0.384314 0 0 0 0.5 0"/>
<feBlend mode="normal" in2="BackgroundImageFix" result="effect1_dropShadow_1_1432"/>
<feBlend mode="normal" in="SourceGraphic" in2="effect1_dropShadow_1_1432" result="shape"/>
</filter>
<clipPath id="clip0_1_1432">
<rect width="355" height="175" fill="white"/>
</clipPath>
</defs>
</svg>
